<?xml version="1.0" encoding="utf-8"?>
<!-- Generator: Adobe Illustrator 19.1.0, SVG Export Plug-In . SVG Version: 6.00 Build 0)  -->
<svg version="1.1" id="Layer_1" xmlns="http://www.w3.org/2000/svg" xmlns:xlink="http://www.w3.org/1999/xlink" x="0px" y="0px"
	 viewBox="0 0 500 500" enable-background="new 0 0 500 500" xml:space="preserve">
<g>
	<g>
		<g>
			<path fill="#0A0B0F" d="M250.4,86.9c56.9,0.8,109.4,15.1,154.3,51.5c26.8,21.7,46.6,48.6,52.9,83
				c10.7,58.2-11.7,112.9-68.9,145.8c-46.4,26.7-96.8,35-149.6,30.8c-13.5-1.1-27-2.4-40.2-5.6c-4.2-1-7.5,0.5-11,2.3
				c-21.8,10.9-44.6,17.8-69.2,18.4c-4.2,0.1-8.2,0-11.9-2.6c-8.7-6.2-9.2-9.9-1.9-17.5c6.4-6.6,12.2-13.6,17-21.4
				c2.9-4.7,2.8-6.7-2.8-9.5c-25.1-12.4-48.5-27.8-62.3-53c-26.4-48.1-21.2-95.1,9.9-139c27.8-39.2,67.8-61,113.2-73.8
				C202.9,89.8,226.5,86.9,250.4,86.9z M135.8,391.7c17.9-3.9,35.5-8.3,51.7-17.3c2.8-1.6,5.4-1.7,8.7-0.9
				c25.2,6.1,50.9,7.7,76.7,7.2c39-0.8,75.6-10.5,109.1-30.4c47-27.9,69.5-78.1,57.4-128c-9.6-39.4-35.4-66.7-69.6-86
				C307.6,101,241.7,96.2,174,117c-39.4,12.1-72.8,33.5-96.3,68.4C49.5,227,45.9,298.1,109,335.8c12.4,7.4,25.3,13.8,38.3,19.9
				c3.7,1.8,4.6,3.4,2.9,7.4c-4,9.8-9.6,18.6-15.4,27.4c-0.6,0.2-1.7,0.3-1.1,1.3C133.9,392.1,135.1,391.8,135.8,391.7z"/>
			<path fill="#FEFEFE" d="M134.8,390.5c5.7-8.8,11.4-17.6,15.4-27.4c1.6-4,0.8-5.7-2.9-7.4c-13-6.1-25.9-12.5-38.3-19.9
				C45.9,298.1,49.5,227,77.7,185.4c23.6-34.8,57-56.3,96.3-68.4c67.8-20.8,133.7-16,195.9,19.3c34.1,19.3,60,46.6,69.6,86
				c12.1,49.9-10.4,100-57.4,128c-33.5,19.9-70.1,29.6-109.1,30.4c-25.9,0.5-51.5-1.1-76.7-7.2c-3.2-0.8-5.8-0.6-8.7,0.9
				c-16.1,9-33.8,13.4-51.7,17.3C135.6,391.3,135.2,390.9,134.8,390.5z M250.6,215.6c-1.2-2.3-2.1-4.1-3-5.7
				c-9.3-16.4-22.8-23.6-40.9-20.1c-13.1,2.5-20.8,12.3-24.8,24.5c-6.7,20.3-0.7,37.8,12.5,53.7c11.6,14,26,24.8,40.1,36.1
				c12.1,9.6,12.1,9.8,25.2,1.7c18.4-11.4,36.6-23,50-40.6c11-14.4,14.4-30.2,8.9-47.7c-4.1-13-11.9-22.7-25.8-25.3
				c-13.5-2.5-25,1.9-34,12.3C255.9,207.8,253.6,211.6,250.6,215.6z"/>
			<path fill="#FEFEFE" d="M135.8,391.7c-0.7,0-1.9,0.4-2.1,0.1c-0.6-1,0.5-1.1,1.1-1.3C135.2,390.9,135.6,391.3,135.8,391.7z"/>
			<path fill="#EC201C" d="M250.6,215.6c2.9-4,5.3-7.8,8.1-11.2c9-10.5,20.5-14.9,34-12.3c14,2.6,21.7,12.3,25.8,25.3
				c5.5,17.5,2.1,33.3-8.9,47.7c-13.4,17.5-31.6,29.2-50,40.6c-13,8-13.1,7.9-25.2-1.7C220.4,292.8,206,282,194.4,268
				c-13.2-15.9-19.2-33.4-12.5-53.7c4.1-12.2,11.7-22,24.8-24.5c18.2-3.5,31.7,3.7,40.9,20.1C248.6,211.5,249.4,213.3,250.6,215.6z"
				/>
		</g>
	</g>
</g>
</svg>
