<?xml version="1.0" encoding="UTF-8" standalone="no"?>
<svg width="301px" height="204px" viewBox="0 0 301 204" version="1.1" xmlns="http://www.w3.org/2000/svg" xmlns:xlink="http://www.w3.org/1999/xlink" xmlns:sketch="http://www.bohemiancoding.com/sketch/ns">
    <!-- Generator: Sketch 3.3.3 (12081) - http://www.bohemiancoding.com/sketch -->
    <title>stars</title>
    <desc>Created with Sketch.</desc>
    <defs></defs>
    <g id="Page-1" stroke="none" stroke-width="1" fill="none" fill-rule="evenodd" sketch:type="MSPage">
        <g id="hypem-dashboard---music-copy-3" sketch:type="MSArtboardGroup" transform="translate(-2.000000, -439.500000)">
            <g id="stars" sketch:type="MSLayerGroup" transform="translate(0.000000, 440.000000)">
                <polygon id="Star-1" fill="#FFFFFF" sketch:type="MSShapeGroup" points="50 4.5 48.2366442 5.42705098 48.5734152 3.46352549 47.1468305 2.07294902 49.1183221 1.78647451 50 0 50.8816779 1.78647451 52.8531695 2.07294902 51.4265848 3.46352549 51.7633558 5.42705098 "></polygon>
                <polygon id="Star-1-Copy" fill="#FFFFFF" sketch:type="MSShapeGroup" points="19 16.5 17.2366442 17.427051 17.5734152 15.4635255 16.1468305 14.072949 18.1183221 13.7864745 19 12 19.8816779 13.7864745 21.8531695 14.072949 20.4265848 15.4635255 20.7633558 17.427051 "></polygon>
                <polygon id="Star-1-Copy-2" fill="#FFFFFF" sketch:type="MSShapeGroup" points="39 66.5 37.2366442 67.427051 37.5734152 65.4635255 36.1468305 64.072949 38.1183221 63.7864745 39 62 39.8816779 63.7864745 41.8531695 64.072949 40.4265848 65.4635255 40.7633558 67.427051 "></polygon>
                <polygon id="Star-1-Copy-3" fill="#FFFFFF" sketch:type="MSShapeGroup" points="83 183.5 81.2366442 184.427051 81.5734152 182.463525 80.1468305 181.072949 82.1183221 180.786475 83 179 83.8816779 180.786475 85.8531695 181.072949 84.4265848 182.463525 84.7633558 184.427051 "></polygon>
                <polygon id="Star-1-Copy-4" fill="#FFFFFF" sketch:type="MSShapeGroup" points="62 186.5 60.2366442 187.427051 60.5734152 185.463525 59.1468305 184.072949 61.1183221 183.786475 62 182 62.8816779 183.786475 64.8531695 184.072949 63.4265848 185.463525 63.7633558 187.427051 "></polygon>
                <polygon id="Star-1-Copy-5" fill="#FFFFFF" sketch:type="MSShapeGroup" points="255 138.5 253.236644 139.427051 253.573415 137.463525 252.14683 136.072949 254.118322 135.786475 255 134 255.881678 135.786475 257.85317 136.072949 256.426585 137.463525 256.763356 139.427051 "></polygon>
                <polygon id="Star-1-Copy-6" fill="#FFFFFF" sketch:type="MSShapeGroup" points="290 84.5 288.236644 85.427051 288.573415 83.4635255 287.14683 82.072949 289.118322 81.7864745 290 80 290.881678 81.7864745 292.85317 82.072949 291.426585 83.4635255 291.763356 85.427051 "></polygon>
                <polygon id="Star-1-Copy-7" fill="#FFFFFF" sketch:type="MSShapeGroup" points="271 76.5 269.236644 77.427051 269.573415 75.4635255 268.14683 74.072949 270.118322 73.7864745 271 72 271.881678 73.7864745 273.85317 74.072949 272.426585 75.4635255 272.763356 77.427051 "></polygon>
                <polygon id="Star-1-Copy-8" fill="#FFFFFF" sketch:type="MSShapeGroup" points="287 161.5 285.236644 162.427051 285.573415 160.463525 284.14683 159.072949 286.118322 158.786475 287 157 287.881678 158.786475 289.85317 159.072949 288.426585 160.463525 288.763356 162.427051 "></polygon>
                <polygon id="Star-1-Copy-9" fill="#FFFFFF" sketch:type="MSShapeGroup" points="260 202.5 258.236644 203.427051 258.573415 201.463525 257.14683 200.072949 259.118322 199.786475 260 198 260.881678 199.786475 262.85317 200.072949 261.426585 201.463525 261.763356 203.427051 "></polygon>
                <polygon id="Star-1-Copy-33" fill="#FFFFFF" sketch:type="MSShapeGroup" points="295.5 84.25 294.618322 84.7135255 294.786708 83.7317627 294.073415 83.0364745 295.059161 82.8932373 295.5 82 295.940839 82.8932373 296.926585 83.0364745 296.213292 83.7317627 296.381678 84.7135255 "></polygon>
                <polygon id="Star-1-Copy-34" fill="#FFFFFF" sketch:type="MSShapeGroup" points="298.5 77.25 297.618322 77.7135255 297.786708 76.7317627 297.073415 76.0364745 298.059161 75.8932373 298.5 75 298.940839 75.8932373 299.926585 76.0364745 299.213292 76.7317627 299.381678 77.7135255 "></polygon>
                <polygon id="Star-1-Copy-35" fill="#FFFFFF" sketch:type="MSShapeGroup" points="284.5 82.25 283.618322 82.7135255 283.786708 81.7317627 283.073415 81.0364745 284.059161 80.8932373 284.5 80 284.940839 80.8932373 285.926585 81.0364745 285.213292 81.7317627 285.381678 82.7135255 "></polygon>
                <polygon id="Star-1-Copy-36" fill="#FFFFFF" sketch:type="MSShapeGroup" points="301.5 97.25 300.618322 97.7135255 300.786708 96.7317627 300.073415 96.0364745 301.059161 95.8932373 301.5 95 301.940839 95.8932373 302.926585 96.0364745 302.213292 96.7317627 302.381678 97.7135255 "></polygon>
                <polygon id="Star-1-Copy-37" fill="#FFFFFF" sketch:type="MSShapeGroup" points="280.5 98.25 279.618322 98.7135255 279.786708 97.7317627 279.073415 97.0364745 280.059161 96.8932373 280.5 96 280.940839 96.8932373 281.926585 97.0364745 281.213292 97.7317627 281.381678 98.7135255 "></polygon>
                <polygon id="Star-1-Copy-38" fill="#FFFFFF" sketch:type="MSShapeGroup" points="197.5 155.25 196.618322 155.713525 196.786708 154.731763 196.073415 154.036475 197.059161 153.893237 197.5 153 197.940839 153.893237 198.926585 154.036475 198.213292 154.731763 198.381678 155.713525 "></polygon>
                <polygon id="Star-1-Copy-39" fill="#FFFFFF" sketch:type="MSShapeGroup" points="25.5 100.25 24.6183221 100.713525 24.7867076 99.7317627 24.0734152 99.0364745 25.0591611 98.8932373 25.5 98 25.9408389 98.8932373 26.9265848 99.0364745 26.2132924 99.7317627 26.3816779 100.713525 "></polygon>
                <polygon id="Star-1-Copy-40" fill="#FFFFFF" sketch:type="MSShapeGroup" points="3.5 25.25 2.61832212 25.7135255 2.78670761 24.7317627 2.07341523 24.0364745 3.05916106 23.8932373 3.5 23 3.94083894 23.8932373 4.92658477 24.0364745 4.21329239 24.7317627 4.38167788 25.7135255 "></polygon>
                <circle id="Oval-30" fill="#FFFFFF" sketch:type="MSShapeGroup" cx="209" cy="176" r="1"></circle>
                <circle id="Oval-30-Copy-2" fill="#FFFFFF" sketch:type="MSShapeGroup" cx="218" cy="169" r="1"></circle>
                <circle id="Oval-30-Copy-3" fill="#FFFFFF" sketch:type="MSShapeGroup" cx="69" cy="118" r="1"></circle>
                <circle id="Oval-30-Copy-4" fill="#808C99" sketch:type="MSShapeGroup" cx="110" cy="196" r="1"></circle>
                <circle id="Oval-30-Copy-5" fill="#808C99" sketch:type="MSShapeGroup" cx="216" cy="169" r="1"></circle>
                <circle id="Oval-30-Copy-6" fill="#808C99" sketch:type="MSShapeGroup" cx="120" cy="168" r="1"></circle>
                <circle id="Oval-30-Copy-7" fill="#808C99" sketch:type="MSShapeGroup" cx="101" cy="139" r="1"></circle>
                <circle id="Oval-30-Copy-8" fill="#808C99" sketch:type="MSShapeGroup" cx="103" cy="126" r="1"></circle>
                <circle id="Oval-30-Copy" fill="#FFFFFF" sketch:type="MSShapeGroup" cx="289" cy="131" r="1"></circle>
                <polygon id="Star-1-Copy-10" fill="#626A71" sketch:type="MSShapeGroup" points="69 125.5 67.2366442 126.427051 67.5734152 124.463525 66.1468305 123.072949 68.1183221 122.786475 69 121 69.8816779 122.786475 71.8531695 123.072949 70.4265848 124.463525 70.7633558 126.427051 "></polygon>
                <polygon id="Star-1-Copy-11" fill="#626A71" sketch:type="MSShapeGroup" points="232 156.5 230.236644 157.427051 230.573415 155.463525 229.14683 154.072949 231.118322 153.786475 232 152 232.881678 153.786475 234.85317 154.072949 233.426585 155.463525 233.763356 157.427051 "></polygon>
                <polygon id="Star-1-Copy-15" fill="#858C93" sketch:type="MSShapeGroup" points="11 71.5 9.23664424 72.427051 9.57341523 70.4635255 8.14683045 69.072949 10.1183221 68.7864745 11 67 11.8816779 68.7864745 13.8531695 69.072949 12.4265848 70.4635255 12.7633558 72.427051 "></polygon>
                <polygon id="Star-1-Copy-16" fill="#858C93" sketch:type="MSShapeGroup" points="65 112.5 63.2366442 113.427051 63.5734152 111.463525 62.1468305 110.072949 64.1183221 109.786475 65 108 65.8816779 109.786475 67.8531695 110.072949 66.4265848 111.463525 66.7633558 113.427051 "></polygon>
                <polygon id="Star-1-Copy-26" fill="#858C93" sketch:type="MSShapeGroup" points="98 151 96.8244295 151.618034 97.0489435 150.309017 96.097887 149.381966 97.4122147 149.190983 98 148 98.5877853 149.190983 99.902113 149.381966 98.9510565 150.309017 99.1755705 151.618034 "></polygon>
                <polygon id="Star-1-Copy-27" fill="#858C93" sketch:type="MSShapeGroup" points="118 157 116.824429 157.618034 117.048943 156.309017 116.097887 155.381966 117.412215 155.190983 118 154 118.587785 155.190983 119.902113 155.381966 118.951057 156.309017 119.175571 157.618034 "></polygon>
                <polygon id="Star-1-Copy-28" fill="#858C93" sketch:type="MSShapeGroup" points="122 182 120.824429 182.618034 121.048943 181.309017 120.097887 180.381966 121.412215 180.190983 122 179 122.587785 180.190983 123.902113 180.381966 122.951057 181.309017 123.175571 182.618034 "></polygon>
                <polygon id="Star-1-Copy-29" fill="#858C93" sketch:type="MSShapeGroup" points="196 146 194.824429 146.618034 195.048943 145.309017 194.097887 144.381966 195.412215 144.190983 196 143 196.587785 144.190983 197.902113 144.381966 196.951057 145.309017 197.175571 146.618034 "></polygon>
                <polygon id="Star-1-Copy-30" fill="#858C93" sketch:type="MSShapeGroup" points="268 127 266.824429 127.618034 267.048943 126.309017 266.097887 125.381966 267.412215 125.190983 268 124 268.587785 125.190983 269.902113 125.381966 268.951057 126.309017 269.175571 127.618034 "></polygon>
                <polygon id="Star-1-Copy-31" fill="#858C93" sketch:type="MSShapeGroup" points="274 135 272.824429 135.618034 273.048943 134.309017 272.097887 133.381966 273.412215 133.190983 274 132 274.587785 133.190983 275.902113 133.381966 274.951057 134.309017 275.175571 135.618034 "></polygon>
                <polygon id="Star-1-Copy-32" fill="#858C93" sketch:type="MSShapeGroup" points="282 76 280.824429 76.618034 281.048943 75.309017 280.097887 74.381966 281.412215 74.190983 282 73 282.587785 74.190983 283.902113 74.381966 282.951057 75.309017 283.175571 76.618034 "></polygon>
                <polygon id="Star-1-Copy-17" fill="#858C93" sketch:type="MSShapeGroup" points="128 117.5 126.236644 118.427051 126.573415 116.463525 125.14683 115.072949 127.118322 114.786475 128 113 128.881678 114.786475 130.85317 115.072949 129.426585 116.463525 129.763356 118.427051 "></polygon>
                <polygon id="Star-1-Copy-18" fill="#858C93" sketch:type="MSShapeGroup" points="99 159.5 97.2366442 160.427051 97.5734152 158.463525 96.1468305 157.072949 98.1183221 156.786475 99 155 99.8816779 156.786475 101.85317 157.072949 100.426585 158.463525 100.763356 160.427051 "></polygon>
                <polygon id="Star-1-Copy-24" fill="#858C93" sketch:type="MSShapeGroup" points="86 182.5 84.2366442 183.427051 84.5734152 181.463525 83.1468305 180.072949 85.1183221 179.786475 86 178 86.8816779 179.786475 88.8531695 180.072949 87.4265848 181.463525 87.7633558 183.427051 "></polygon>
                <polygon id="Star-1-Copy-25" fill="#858C93" sketch:type="MSShapeGroup" points="89 179.5 87.2366442 180.427051 87.5734152 178.463525 86.1468305 177.072949 88.1183221 176.786475 89 175 89.8816779 176.786475 91.8531695 177.072949 90.4265848 178.463525 90.7633558 180.427051 "></polygon>
                <polygon id="Star-1-Copy-19" fill="#858C93" sketch:type="MSShapeGroup" points="128 166.5 126.236644 167.427051 126.573415 165.463525 125.14683 164.072949 127.118322 163.786475 128 162 128.881678 163.786475 130.85317 164.072949 129.426585 165.463525 129.763356 167.427051 "></polygon>
                <polygon id="Star-1-Copy-20" fill="#858C93" sketch:type="MSShapeGroup" points="192 138.5 190.236644 139.427051 190.573415 137.463525 189.14683 136.072949 191.118322 135.786475 192 134 192.881678 135.786475 194.85317 136.072949 193.426585 137.463525 193.763356 139.427051 "></polygon>
                <polygon id="Star-1-Copy-21" fill="#858C93" sketch:type="MSShapeGroup" points="209 166.5 207.236644 167.427051 207.573415 165.463525 206.14683 164.072949 208.118322 163.786475 209 162 209.881678 163.786475 211.85317 164.072949 210.426585 165.463525 210.763356 167.427051 "></polygon>
                <polygon id="Star-1-Copy-22" fill="#858C93" sketch:type="MSShapeGroup" points="158 176.5 156.236644 177.427051 156.573415 175.463525 155.14683 174.072949 157.118322 173.786475 158 172 158.881678 173.786475 160.85317 174.072949 159.426585 175.463525 159.763356 177.427051 "></polygon>
                <polygon id="Star-1-Copy-23" fill="#858C93" sketch:type="MSShapeGroup" points="248 128.5 246.236644 129.427051 246.573415 127.463525 245.14683 126.072949 247.118322 125.786475 248 124 248.881678 125.786475 250.85317 126.072949 249.426585 127.463525 249.763356 129.427051 "></polygon>
                <polygon id="Star-1-Copy-12" fill="#626A71" sketch:type="MSShapeGroup" points="281 93.5 279.236644 94.427051 279.573415 92.4635255 278.14683 91.072949 280.118322 90.7864745 281 89 281.881678 90.7864745 283.85317 91.072949 282.426585 92.4635255 282.763356 94.427051 "></polygon>
                <polygon id="Star-1-Copy-13" fill="#626A71" sketch:type="MSShapeGroup" points="255 162.5 253.236644 163.427051 253.573415 161.463525 252.14683 160.072949 254.118322 159.786475 255 158 255.881678 159.786475 257.85317 160.072949 256.426585 161.463525 256.763356 163.427051 "></polygon>
                <polygon id="Star-1-Copy-14" fill="#626A71" sketch:type="MSShapeGroup" points="111 140.5 109.236644 141.427051 109.573415 139.463525 108.14683 138.072949 110.118322 137.786475 111 136 111.881678 137.786475 113.85317 138.072949 112.426585 139.463525 112.763356 141.427051 "></polygon>
                <polygon id="Star-11" fill="#BBC3CA" sketch:type="MSShapeGroup" points="48 11.5 46.2366442 12.427051 46.5734152 10.4635255 45.1468305 9.07294902 47.1183221 8.78647451 48 7 48.8816779 8.78647451 50.8531695 9.07294902 49.4265848 10.4635255 49.7633558 12.427051 "></polygon>
                <polygon id="Star-11-Copy-8" fill="#BBC3CA" sketch:type="MSShapeGroup" points="109.5 126.25 108.618322 126.713525 108.786708 125.731763 108.073415 125.036475 109.059161 124.893237 109.5 124 109.940839 124.893237 110.926585 125.036475 110.213292 125.731763 110.381678 126.713525 "></polygon>
                <polygon id="Star-11-Copy-9" fill="#BBC3CA" sketch:type="MSShapeGroup" points="108.5 171.25 107.618322 171.713525 107.786708 170.731763 107.073415 170.036475 108.059161 169.893237 108.5 169 108.940839 169.893237 109.926585 170.036475 109.213292 170.731763 109.381678 171.713525 "></polygon>
                <polygon id="Star-11-Copy-10" fill="#BBC3CA" sketch:type="MSShapeGroup" points="164.5 152.25 163.618322 152.713525 163.786708 151.731763 163.073415 151.036475 164.059161 150.893237 164.5 150 164.940839 150.893237 165.926585 151.036475 165.213292 151.731763 165.381678 152.713525 "></polygon>
                <polygon id="Star-11-Copy-11" fill="#BBC3CA" sketch:type="MSShapeGroup" points="199.5 149.25 198.618322 149.713525 198.786708 148.731763 198.073415 148.036475 199.059161 147.893237 199.5 147 199.940839 147.893237 200.926585 148.036475 200.213292 148.731763 200.381678 149.713525 "></polygon>
                <polygon id="Star-11-Copy-12" fill="#BBC3CA" sketch:type="MSShapeGroup" points="280.5 142.25 279.618322 142.713525 279.786708 141.731763 279.073415 141.036475 280.059161 140.893237 280.5 140 280.940839 140.893237 281.926585 141.036475 281.213292 141.731763 281.381678 142.713525 "></polygon>
                <polygon id="Star-11-Copy-13" fill="#BBC3CA" sketch:type="MSShapeGroup" points="247.5 164.25 246.618322 164.713525 246.786708 163.731763 246.073415 163.036475 247.059161 162.893237 247.5 162 247.940839 162.893237 248.926585 163.036475 248.213292 163.731763 248.381678 164.713525 "></polygon>
                <polygon id="Star-11-Copy" fill="#BBC3CA" sketch:type="MSShapeGroup" points="19 65.5 17.2366442 66.427051 17.5734152 64.4635255 16.1468305 63.072949 18.1183221 62.7864745 19 61 19.8816779 62.7864745 21.8531695 63.072949 20.4265848 64.4635255 20.7633558 66.427051 "></polygon>
                <polygon id="Star-11-Copy-2" fill="#BBC3CA" sketch:type="MSShapeGroup" points="111 176.5 109.236644 177.427051 109.573415 175.463525 108.14683 174.072949 110.118322 173.786475 111 172 111.881678 173.786475 113.85317 174.072949 112.426585 175.463525 112.763356 177.427051 "></polygon>
                <polygon id="Star-11-Copy-3" fill="#BBC3CA" sketch:type="MSShapeGroup" points="111 183.5 109.236644 184.427051 109.573415 182.463525 108.14683 181.072949 110.118322 180.786475 111 179 111.881678 180.786475 113.85317 181.072949 112.426585 182.463525 112.763356 184.427051 "></polygon>
                <polygon id="Star-11-Copy-7" fill="#BBC3CA" sketch:type="MSShapeGroup" points="180 169.5 178.236644 170.427051 178.573415 168.463525 177.14683 167.072949 179.118322 166.786475 180 165 180.881678 166.786475 182.85317 167.072949 181.426585 168.463525 181.763356 170.427051 "></polygon>
                <polygon id="Star-11-Copy-4" fill="#BBC3CA" sketch:type="MSShapeGroup" points="255 129.5 253.236644 130.427051 253.573415 128.463525 252.14683 127.072949 254.118322 126.786475 255 125 255.881678 126.786475 257.85317 127.072949 256.426585 128.463525 256.763356 130.427051 "></polygon>
                <polygon id="Star-11-Copy-5" fill="#BBC3CA" sketch:type="MSShapeGroup" points="256 96.5 254.236644 97.427051 254.573415 95.4635255 253.14683 94.072949 255.118322 93.7864745 256 92 256.881678 93.7864745 258.85317 94.072949 257.426585 95.4635255 257.763356 97.427051 "></polygon>
                <polygon id="Star-11-Copy-14" fill="#BBC3CA" sketch:type="MSShapeGroup" points="265 63.5 263.236644 64.427051 263.573415 62.4635255 262.14683 61.072949 264.118322 60.7864745 265 59 265.881678 60.7864745 267.85317 61.072949 266.426585 62.4635255 266.763356 64.427051 "></polygon>
                <polygon id="Star-11-Copy-6" fill="#BBC3CA" sketch:type="MSShapeGroup" points="25 112.5 23.2366442 113.427051 23.5734152 111.463525 22.1468305 110.072949 24.1183221 109.786475 25 108 25.8816779 109.786475 27.8531695 110.072949 26.4265848 111.463525 26.7633558 113.427051 "></polygon>
            </g>
        </g>
    </g>
</svg>