<?xml version="1.0" encoding="UTF-8" standalone="no"?>
<svg width="17px" height="17px" viewBox="0 0 17 17" version="1.1" xmlns="http://www.w3.org/2000/svg" xmlns:xlink="http://www.w3.org/1999/xlink" xmlns:sketch="http://www.bohemiancoding.com/sketch/ns">
    <!-- Generator: Sketch 3.4.1 (15681) - http://www.bohemiancoding.com/sketch -->
    <title>me-selected</title>
    <desc>Created with Sketch.</desc>
    <defs></defs>
    <g id="Page-1" stroke="none" stroke-width="1" fill="none" fill-rule="evenodd" sketch:type="MSPage">
        <g id="me-selected" sketch:type="MSArtboardGroup" fill="#B3E527">
            <path d="M8.5,0 C6.1625,0 4.25,2.38 4.25,5.3125 C4.25,8.245 6.1625,10.625 8.5,10.625 C10.8375,10.625 12.75,8.245 12.75,5.3125 C12.75,2.38 10.8375,0 8.5,0 L8.5,0 Z M4.05875,10.625 C1.80625,10.73125 0,12.58 0,14.875 L0,17 L17,17 L17,14.875 C17,12.58 15.215,10.73125 12.94125,10.625 C11.79375,11.92125 10.22125,12.75 8.5,12.75 C6.77875,12.75 5.20625,11.92125 4.05875,10.625 L4.05875,10.625 Z" id="Shape" sketch:type="MSShapeGroup"></path>
        </g>
    </g>
</svg>