<?xml version="1.0" encoding="UTF-8" standalone="no"?>
<svg width="17px" height="17px" viewBox="0 0 17 17" version="1.1" xmlns="http://www.w3.org/2000/svg" xmlns:xlink="http://www.w3.org/1999/xlink" xmlns:sketch="http://www.bohemiancoding.com/sketch/ns">
    <!-- Generator: Sketch 3.4.1 (15681) - http://www.bohemiancoding.com/sketch -->
    <title>settings-seleted</title>
    <desc>Created with Sketch.</desc>
    <defs></defs>
    <g id="Page-1" stroke="none" stroke-width="1" fill="none" fill-rule="evenodd" sketch:type="MSPage">
        <g id="settings-seleted" sketch:type="MSArtboardGroup" fill="#B3E527">
            <path d="M7.44014963,0 L6.38029925,2.52244389 C6.16832918,2.58603491 5.97755611,2.69201995 5.78678304,2.79800499 L3.26433915,1.73815461 L1.73815461,3.26433915 L2.79800499,5.78678304 C2.69201995,5.99875312 2.60723192,6.16832918 2.52244389,6.38029925 L0,7.44014963 L0,9.55985037 L2.52244389,10.6197007 C2.60723192,10.8316708 2.69201995,11.0012469 2.79800499,11.213217 L1.73815461,13.7356608 L3.26433915,15.2618454 L5.78678304,14.201995 C5.97755611,14.286783 6.16832918,14.3927681 6.38029925,14.4775561 L7.44014963,17 L9.55985037,17 L10.6197007,14.4775561 C10.8104738,14.3927681 11.0224439,14.30798 11.213217,14.201995 L13.7356608,15.2618454 L15.2618454,13.7356608 L14.201995,11.213217 C14.286783,11.0224439 14.3927681,10.8104738 14.4775561,10.6197007 L17,9.55985037 L17,7.44014963 L14.4775561,6.38029925 C14.4139651,6.18952618 14.30798,5.97755611 14.201995,5.78678304 L15.2618454,3.26433915 L13.7356608,1.73815461 L11.213217,2.79800499 C11.0224439,2.71321696 10.8104738,2.60723192 10.6197007,2.52244389 L9.55985037,9.4133623e-16 L7.44014963,9.4133623e-16 L7.44014963,0 Z M8.5,5.29925187 C10.2593516,5.29925187 11.6795511,6.71945137 11.6795511,8.47880299 C11.6795511,10.2381546 10.2593516,11.6583541 8.5,11.6583541 C6.74064838,11.6583541 5.32044888,10.2381546 5.32044888,8.47880299 C5.32044888,6.71945137 6.74064838,5.29925187 8.5,5.29925187 L8.5,5.29925187 Z" id="Shape" sketch:type="MSShapeGroup"></path>
        </g>
    </g>
</svg>